<svg xmlns="http://www.w3.org/2000/svg" xmlns:xlink="http://www.w3.org/1999/xlink" version="1.2" baseProfile="tiny" x="0px" y="0px" viewBox="0 0 64 64" xml:space="preserve"><path fill="#000000" d="M59.924,60.039c0.495,0.495,0.495,1.299,0,1.795l-1.796,1.796c-0.496,0.494-1.299,0.494-1.795,0  L43.767,51.062c-0.137-0.137-0.228-0.298-0.289-0.469c-2.577,1.883-5.742,3.007-9.181,3.007c-8.614,0-15.599-6.983-15.599-15.598  s6.984-15.599,15.599-15.599s15.599,6.984,15.599,15.599c0,3.438-1.125,6.603-3.008,9.181c0.172,0.061,0.332,0.15,0.469,0.289  L59.924,60.039z M34.297,27.604c-5.743,0-10.399,4.656-10.399,10.399c0,5.742,4.656,10.398,10.399,10.398  s10.399-4.656,10.399-10.398C44.697,32.26,40.041,27.604,34.297,27.604z"></path><path fill="#000000" d="M2.995,18.299h37.878V14.28H2.995V18.299z M2.995,3.902v4.019h37.878V3.902H2.995z M2.995,28.676h14.144  c0.818-1.47,1.826-2.816,2.984-4.019H2.995V28.676z M2.995,35.035v4.019h11.764c-0.017-0.337-0.051-0.669-0.051-1.01  c0-1.026,0.104-2.026,0.258-3.009H2.995z"></path></svg>
